<svg xmlns="http://www.w3.org/2000/svg" viewBox="480 870 1100 270">
  <defs>
    <style>
      .st0 {
        fill: #fff;
      }
      .st1 {
        fill: #426bf8;
      }
    </style>
  </defs>
  <g>
    <path class="st0" d="M828.6,986.15l-35.88.16.42,95.6,27.41-.12-.31-72.37,65.34-.28-.1-23.3-56.86.25v.07Z"/>
    <path class="st0" d="M934.87,928.38l.66,152.91-26.79.12-.66-152.91,26.79-.12Z"/>
    <path class="st0" d="M977.55,1075.33c-8.68-4.77-15.48-11.48-20.39-20.11-4.92-8.63-7.4-18.38-7.44-29.23-.05-10.85,2.35-20.58,7.19-29.19,4.84-8.6,11.58-15.33,20.21-20.18,8.63-4.85,18.38-7.29,29.23-7.34,10.72-.05,20.38,2.32,28.98,7.09,8.61,4.77,15.33,11.44,20.18,20,4.85,8.57,7.29,18.28,7.34,29.13.05,10.86-2.31,20.62-7.08,29.3-4.77,8.67-11.44,15.44-20.01,20.28-8.57,4.85-18.21,7.29-28.92,7.34-10.86.05-20.62-2.31-29.29-7.08ZM1027.83,1050.08c5.54-6.13,8.28-14.29,8.24-24.46-.04-10.16-2.86-18.26-8.45-24.28-5.59-6.02-12.65-9.01-21.16-8.97-8.66.04-15.79,3.09-21.39,9.16-5.61,6.07-8.39,14.19-8.34,24.35.04,10.17,2.9,18.3,8.56,24.38,5.66,6.09,12.82,9.12,21.47,9.08,8.52-.04,15.55-3.13,21.08-9.26Z"/>
    <path class="st0" d="M1204.05,1080.12l-25.55.11-25.87-73.67-26.26,73.89-25.35.11-38.6-110.08,24.93-.11,26.93,79.02,27.27-79.25,22.46-.1,27.34,79.02,26.86-79.25,23.49-.1-37.64,110.42Z"/>
    <path class="st0" d="M1441.54,1076.51c-9.97-3.18-17.93-7.31-23.85-12.37l9.39-21.88c5.65,4.65,12.57,8.39,20.76,11.24,8.18,2.85,16.4,4.26,24.64,4.22,9.75-.04,17.03-1.72,21.82-5.04,4.79-3.32,7.18-7.66,7.16-13.02-.02-4.12-1.41-7.41-4.16-9.87-2.76-2.46-6.17-4.4-10.23-5.83-4.06-1.43-9.94-3.08-17.64-4.97-10.32-2.43-18.74-4.97-25.28-7.62-6.54-2.65-12.15-6.78-16.85-12.4-4.7-5.61-7.06-13.16-7.1-22.64-.04-8.11,2.02-15.47,6.19-22.08,4.16-6.61,10.42-11.9,18.79-15.85,8.36-3.95,18.59-5.96,30.68-6.01,8.65-.04,17.07,1.06,25.26,3.29,8.18,2.23,15.31,5.39,21.37,9.49l-8.56,22.09c-6.07-3.82-12.36-6.68-18.9-8.57-6.53-1.89-12.89-2.83-19.07-2.8-9.62.04-16.76,1.82-21.41,5.35-4.66,3.52-6.97,8.03-6.95,13.53.02,3.99,1.4,7.24,4.16,9.77,2.76,2.53,6.23,4.51,10.44,5.93,4.19,1.43,9.94,3.02,17.23,4.77,10.59,2.57,19.09,5.14,25.48,7.72,6.4,2.58,11.95,6.64,16.64,12.19,4.69,5.54,7.06,12.99,7.1,22.33.03,7.97-2.03,15.26-6.19,21.87-4.17,6.61-10.49,11.89-18.99,15.85-8.51,3.95-18.87,5.95-31.09,6.01-10.58.05-20.85-1.53-30.83-4.71Z"/>
    <g>
      <path class="st0" d="M1401.65,990.92l-22.95,5.48c1.16,4.2,1.8,8.6,1.82,13.13.12,27.57-22.2,50.12-49.8,50.24-27.57.12-50.09-22.24-50.21-49.8-.12-27.57,22.2-50.09,49.77-50.21,3.71-.02,7.33.36,10.79,1.13l8.02-22.36c-6.04-1.57-12.36-2.42-18.91-2.39-40.57.18-73.47,33.36-73.3,73.93.18,40.6,33.36,73.47,73.93,73.3,40.64-.18,73.5-33.33,73.33-73.93-.03-6.39-.87-12.58-2.49-18.5Z"/>
      <rect class="st1" x="1360.59" y="949.1" width="28.26" height="28.26" rx="14.13" ry="14.13" transform="translate(-4.17 5.98) rotate(-.25)"/>
    </g>
    <polygon class="st1" points="792.51 937.34 792.61 960.61 828.49 960.45 828.49 960.48 893.8 960.2 893.7 936.9 792.51 937.34"/>
  </g>
  <g>
    <circle class="st1" cx="700.51" cy="926.2" r="23.67"/>
    <g>
      <path class="st0" d="M604.32,932.65c5.49.45,10.5-3.15,11.78-8.42.76-3.16.11-6.47-1.8-9.1-1.93-2.66-4.92-4.34-8.21-4.6-2.38-.19-4.81-.29-7.21-.29-25.33,0-49.61,10.82-66.64,29.68-17.24,19.11-25.29,43.8-22.65,69.54,4.17,40.6,36.52,74.02,76.91,79.48,4.09.55,8.25.83,12.37.83,38.05,0,72.08-24.05,84.68-59.86,1.08-3.06.76-6.43-.87-9.24-1.63-2.82-4.4-4.78-7.61-5.37-.66-.12-1.34-.19-2.01-.19-4.68,0-8.9,3.02-10.49,7.52-9.5,26.88-35.1,44.94-63.7,44.94-2.77,0-5.56-.17-8.29-.5-31.03-3.73-55.81-29.02-58.93-60.13-1.94-19.33,4.14-37.88,17.12-52.22,14.02-15.5,34.47-23.76,55.55-22.06Z"/>
      <path class="st0" d="M722.9,968.48c-1.26-4.96-5.69-8.42-10.79-8.42-1.31,0-2.6.23-3.85.69-5.26,1.95-8.32,7.6-6.96,12.87,2.2,8.56,3.32,17.44,3.32,26.37,0,58.19-47.34,105.54-105.54,105.54-20.73,0-40.84-6.04-58.16-17.47-1.74-1.14-3.76-1.75-5.85-1.75-3.34,0-6.49,1.49-8.62,4.1-2,2.43-2.87,5.61-2.39,8.73.48,3.11,2.26,5.89,4.89,7.62,20.9,13.71,45.15,20.96,70.12,20.96,70.43,0,127.73-57.3,127.73-127.73,0-10.69-1.32-21.29-3.92-31.52Z"/>
      <path class="st0" d="M485.67,1024.31c5.54-1.24,9.24-6.41,8.59-12.03-.47-4.07-.71-8.21-.71-12.29,0-58.19,47.34-105.54,105.54-105.54,20.43,0,40.19,5.8,57.14,16.78,1.72,1.11,3.72,1.7,5.78,1.7,3.34,0,6.59-1.57,8.69-4.19,1.97-2.45,2.8-5.64,2.29-8.75-.51-3.1-2.32-5.85-4.96-7.54-20.64-13.21-44.48-20.2-68.94-20.2-70.43,0-127.73,57.3-127.73,127.73,0,4.9.28,9.84.84,14.7.65,5.64,5.39,9.89,11.04,9.89.81,0,1.64-.09,2.44-.27Z"/>
      <path class="st0" d="M502.02,1041.52c-1.75-4.08-5.74-6.72-10.17-6.72-1.1,0-2.2.17-3.27.5-3.01.93-5.49,3.1-6.82,5.96-1.32,2.86-1.37,6.15-.13,9.04,5.04,11.73,11.8,22.63,20.08,32.38,2.11,2.49,5.2,3.92,8.47,3.92,3.07,0,5.93-1.22,8.05-3.44,3.92-4.11,4.11-10.48.43-14.81-6.88-8.09-12.47-17.12-16.64-26.83Z"/>
      <path class="st0" d="M642.86,921.76c-1.58-.9-3.3-1.36-5.11-1.36-4.51,0-8.62,2.84-10.23,7.09l-.22.61c-1.86,4.92.22,10.44,4.94,13.13,19.11,10.9,31.77,30.48,33.89,52.35l.16,2c.77,4.64,4.4,8.31,9.03,9.12.6.1,1.2.16,1.81.17l.41-.03c5.97-.1,10.85-5.02,10.87-10.99-.03-.69-.09-1.39-.18-2.02l-.04-.4c-2.81-29.17-19.75-55.22-45.31-69.67Z"/>
    </g>
  </g>
</svg>
