<svg width="512" height="512" viewBox="0 0 512 512" fill="none" xmlns="http://www.w3.org/2000/svg">
<path d="M459.243 155.533C485.443 155.533 506.683 134.294 506.683 108.095C506.683 81.8951 485.443 60.6562 459.243 60.6562C433.042 60.6562 411.803 81.8951 411.803 108.095C411.803 134.294 433.042 155.533 459.243 155.533Z" fill="#426BF8"/>
<path d="M266.469 121.014C277.484 121.909 287.522 114.704 290.073 104.136C291.596 97.8085 290.288 91.1665 286.462 85.8992C282.602 80.5657 276.606 77.2034 269.997 76.6734C265.226 76.2924 260.356 76.0936 255.536 76.0936C204.783 76.0936 156.101 97.7755 121.995 135.574C87.4424 173.869 71.3089 223.361 76.6095 274.924C84.9744 356.285 149.79 423.268 230.756 434.2C238.955 435.31 247.287 435.873 255.536 435.873C331.798 435.873 399.993 387.673 425.237 315.919C427.39 309.791 426.76 303.033 423.497 297.401C420.234 291.753 414.669 287.827 408.258 286.635C406.933 286.386 405.575 286.254 404.233 286.254C394.841 286.254 386.394 292.299 383.213 301.31C364.164 355.175 312.865 391.383 255.553 391.383C249.987 391.383 244.405 391.052 238.939 390.389C176.757 382.903 127.081 332.234 120.836 269.872C116.943 231.13 129.135 193.961 155.14 165.223C183.233 134.166 224.23 117.602 266.469 120.998V121.014Z" fill="#00268B"/>
<path d="M504.115 192.834C501.598 182.896 492.703 175.973 482.499 175.973C479.882 175.973 477.281 176.436 474.78 177.364C464.245 181.273 458.117 192.603 460.833 203.154C465.256 220.314 467.492 238.103 467.492 256.008C467.492 372.633 372.612 467.51 255.983 467.51C214.44 467.51 174.14 455.402 139.438 432.511C135.959 430.225 131.901 429.016 127.727 429.016C121.035 429.016 114.724 432.014 110.45 437.232C106.458 442.101 104.702 448.478 105.663 454.723C106.624 460.967 110.185 466.533 115.469 469.995C157.36 497.474 205.959 512 256 512C397.16 512 512 397.164 512 256.025C512 234.608 509.366 213.357 504.148 192.868L504.115 192.834Z" fill="#00268B"/>
<path d="M28.6892 304.722C39.8038 302.238 47.1914 291.885 45.8994 280.622C44.9552 272.456 44.4749 264.174 44.4749 255.992C44.4749 139.367 139.355 44.49 255.983 44.49C296.93 44.49 336.535 56.1178 370.492 78.1144C373.937 80.3505 377.946 81.5265 382.087 81.5265C388.779 81.5265 395.288 78.396 399.496 73.1287C403.438 68.2093 405.111 61.8157 404.084 55.5877C403.057 49.3763 399.429 43.8606 394.145 40.4816C352.785 13.9963 305.013 0 255.983 0C114.84 0 0 114.836 0 255.975C0 265.797 0.563098 275.703 1.6729 285.425C2.96491 296.722 12.4894 305.236 23.8028 305.236C25.4426 305.236 27.0825 305.053 28.6892 304.689V304.722Z" fill="#00268B"/>
<path d="M61.4531 339.208C57.9581 331.025 49.941 325.741 41.0626 325.741C38.8595 325.741 36.6565 326.073 34.5197 326.735C28.4903 328.59 23.5045 332.947 20.8542 338.678C18.2039 344.409 18.1046 351.001 20.5892 356.798C30.6934 380.319 44.2263 402.15 60.8402 421.695C65.0641 426.681 71.2591 429.546 77.8186 429.546C83.9805 429.546 89.7117 427.095 93.9521 422.639C101.82 414.39 102.185 401.636 94.8135 392.957C81.032 376.741 69.8181 358.653 61.4697 339.191L61.4531 339.208Z" fill="#00268B"/>
<path d="M343.707 99.1999C340.544 97.3945 337.098 96.4835 333.471 96.4835C324.443 96.4835 316.194 102.181 312.964 110.695L312.517 111.921C308.79 121.776 312.948 132.857 322.422 138.241C360.719 160.088 386.095 199.311 390.336 243.138L390.65 247.147C392.207 256.456 399.462 263.793 408.738 265.416C409.948 265.615 411.14 265.748 412.366 265.764L413.178 265.698C425.154 265.483 434.927 255.644 434.96 243.668C434.91 242.277 434.777 240.886 434.595 239.627L434.512 238.832C428.881 180.379 394.924 128.17 343.691 99.1999H343.707Z" fill="#00268B"/>
</svg>
